<svg width="135" height="24" viewBox="0 0 135 24" fill="none" xmlns="http://www.w3.org/2000/svg">
<path d="M11.5853 9.38018C11.8489 10.1044 11.8142 10.5783 11.357 10.7447C11.0792 10.8459 10.7728 10.7049 10.6728 10.4299L9.11594 6.15262C9.01586 5.87765 9.15992 5.57277 9.43771 5.47166C9.89497 5.30523 10.2261 5.64602 10.498 6.39285L11.5853 9.38018Z" fill="black"/>
<path d="M14.3785 16.77C14.6503 17.5168 14.6157 17.9907 14.1584 18.1571C13.8301 18.2766 13.4681 18.1101 13.3498 17.7851L11.8012 13.5304C11.683 13.2054 11.8532 12.8451 12.1815 12.7256C12.6388 12.5592 12.9699 12.9 13.2335 13.6242L14.3785 16.77Z" fill="black"/>
<path fill-rule="evenodd" clip-rule="evenodd" d="M12 24C18.6274 24 24 18.6274 24 12C24 5.37258 18.6274 0 12 0C5.37258 0 0 5.37258 0 12C0 18.6274 5.37258 24 12 24ZM16.0119 12.7924C15.6577 11.8192 15.0804 11.1579 13.8082 11.0059C14.6933 10.0943 14.619 9.24992 14.2648 8.27677L13.2187 5.4026C12.4773 3.36579 10.8766 2.66694 8.93324 3.37426L6.67418 4.19649C6.00254 4.44095 5.65423 5.17808 5.89621 5.84291L11.1154 20.1825C11.2511 20.5553 11.5436 20.8263 11.8929 20.9492L11.2635 21.991C11.2427 22.0255 11.2527 22.0709 11.286 22.0924C11.7382 22.3845 12.3071 22.4043 12.7785 22.1443C12.8132 22.1252 12.8264 22.0806 12.808 22.0447L12.2835 21.0222C12.4443 21.0271 12.609 21.0021 12.7696 20.9436L15.1201 20.0881C17.0635 19.3808 17.8405 17.8165 17.1074 15.8023L16.0119 12.7924Z" fill="black"/>
<path d="M11.5853 9.38018C11.8489 10.1044 11.8142 10.5783 11.357 10.7447C11.0792 10.8459 10.7728 10.7049 10.6728 10.4299L9.11594 6.15262C9.01586 5.87765 9.15992 5.57277 9.43771 5.47166C9.89497 5.30523 10.2261 5.64602 10.498 6.39285L11.5853 9.38018Z" stroke="white"/>
<path d="M14.3785 16.77C14.6503 17.5168 14.6157 17.9907 14.1584 18.1571C13.8301 18.2766 13.4681 18.1101 13.3498 17.7851L11.8012 13.5304C11.683 13.2054 11.8532 12.8451 12.1815 12.7256C12.6388 12.5592 12.9699 12.9 13.2335 13.6242L14.3785 16.77Z" stroke="white"/>
<path fill-rule="evenodd" clip-rule="evenodd" d="M12 24C18.6274 24 24 18.6274 24 12C24 5.37258 18.6274 0 12 0C5.37258 0 0 5.37258 0 12C0 18.6274 5.37258 24 12 24ZM16.0119 12.7924C15.6577 11.8192 15.0804 11.1579 13.8082 11.0059C14.6933 10.0943 14.619 9.24992 14.2648 8.27677L13.2187 5.4026C12.4773 3.36579 10.8766 2.66694 8.93324 3.37426L6.67418 4.19649C6.00254 4.44095 5.65423 5.17808 5.89621 5.84291L11.1154 20.1825C11.2511 20.5553 11.5436 20.8263 11.8929 20.9492L11.2635 21.991C11.2427 22.0255 11.2527 22.0709 11.286 22.0924C11.7382 22.3845 12.3071 22.4043 12.7785 22.1443C12.8132 22.1252 12.8264 22.0806 12.808 22.0447L12.2835 21.0222C12.4443 21.0271 12.609 21.0021 12.7696 20.9436L15.1201 20.0881C17.0635 19.3808 17.8405 17.8165 17.1074 15.8023L16.0119 12.7924Z" stroke="white"/>
<path d="M34.7727 18V6.36364H39.2273C40.0682 6.36364 40.767 6.49621 41.3239 6.76136C41.8845 7.02273 42.303 7.38068 42.5795 7.83523C42.8598 8.28977 43 8.80492 43 9.38068C43 9.85417 42.9091 10.2595 42.7273 10.5966C42.5455 10.9299 42.3011 11.2008 41.9943 11.4091C41.6875 11.6174 41.3447 11.767 40.9659 11.858V11.9716C41.3788 11.9943 41.7746 12.1212 42.1534 12.3523C42.536 12.5795 42.8485 12.9015 43.0909 13.3182C43.3333 13.7348 43.4545 14.2386 43.4545 14.8295C43.4545 15.4318 43.3087 15.9735 43.017 16.4545C42.7254 16.9318 42.286 17.3087 41.6989 17.5852C41.1117 17.8617 40.3731 18 39.483 18H34.7727ZM36.8807 16.2386H39.1477C39.9129 16.2386 40.464 16.0928 40.8011 15.8011C41.142 15.5057 41.3125 15.1269 41.3125 14.6648C41.3125 14.3201 41.2273 14.0095 41.0568 13.733C40.8864 13.4527 40.6439 13.233 40.3295 13.0739C40.0152 12.911 39.6402 12.8295 39.2045 12.8295H36.8807V16.2386ZM36.8807 11.3125H38.9659C39.3295 11.3125 39.6572 11.2462 39.9489 11.1136C40.2405 10.9773 40.4697 10.786 40.6364 10.5398C40.8068 10.2898 40.892 9.99432 40.892 9.65341C40.892 9.20265 40.733 8.83144 40.4148 8.53977C40.1004 8.24811 39.6326 8.10227 39.0114 8.10227H36.8807V11.3125ZM45.2884 18V6.36364H47.3963V16.233H52.5213V18H45.2884ZM63.9134 6.36364V18H62.0384L56.5554 10.0739H56.4588V18H54.3509V6.36364H56.2372L61.7145 14.2955H61.8168V6.36364H63.9134ZM66.2102 18V6.36364H70.5739C71.4678 6.36364 72.2178 6.51894 72.8239 6.82955C73.4337 7.14015 73.8939 7.57576 74.2045 8.13636C74.5189 8.69318 74.6761 9.3428 74.6761 10.0852C74.6761 10.8314 74.517 11.4792 74.1989 12.0284C73.8845 12.5739 73.4205 12.9962 72.8068 13.2955C72.1932 13.5909 71.4394 13.7386 70.5455 13.7386H67.4375V11.9886H70.2614C70.7841 11.9886 71.2121 11.9167 71.5455 11.7727C71.8788 11.625 72.125 11.411 72.2841 11.1307C72.447 10.8466 72.5284 10.4981 72.5284 10.0852C72.5284 9.67235 72.447 9.32008 72.2841 9.02841C72.1212 8.73295 71.8731 8.50947 71.5398 8.35795C71.2064 8.20265 70.7765 8.125 70.25 8.125H68.3182V18H66.2102ZM72.2216 12.7273L75.1023 18H72.75L69.9205 12.7273H72.2216ZM75.3679 6.36364H77.7486L80.5952 11.5114H80.7088L83.5554 6.36364H85.9361L81.7031 13.6591V18H79.6009V13.6591L75.3679 6.36364ZM87.6989 18.125C87.3542 18.125 87.0587 18.0038 86.8125 17.7614C86.5663 17.5189 86.4451 17.2235 86.4489 16.875C86.4451 16.5341 86.5663 16.2424 86.8125 16C87.0587 15.7576 87.3542 15.6364 87.6989 15.6364C88.0322 15.6364 88.322 15.7576 88.5682 16C88.8182 16.2424 88.9451 16.5341 88.9489 16.875C88.9451 17.1061 88.8845 17.3163 88.767 17.5057C88.6534 17.6951 88.5019 17.8466 88.3125 17.9602C88.1269 18.0701 87.9223 18.125 87.6989 18.125ZM97.4872 9.5625C97.4342 9.06629 97.2107 8.67992 96.8168 8.40341C96.4266 8.12689 95.919 7.98864 95.294 7.98864C94.8546 7.98864 94.4777 8.05492 94.1634 8.1875C93.849 8.32008 93.6084 8.5 93.4418 8.72727C93.2751 8.95455 93.1899 9.21402 93.1861 9.50568C93.1861 9.74811 93.241 9.95833 93.3509 10.1364C93.4645 10.3144 93.6179 10.4659 93.8111 10.5909C94.0043 10.7121 94.2183 10.8144 94.4531 10.8977C94.688 10.9811 94.9247 11.0511 95.1634 11.108L96.2543 11.3807C96.6937 11.483 97.116 11.6212 97.5213 11.7955C97.9304 11.9697 98.2959 12.1894 98.6179 12.4545C98.9437 12.7197 99.2012 13.0398 99.3906 13.4148C99.58 13.7898 99.6747 14.2292 99.6747 14.733C99.6747 15.4148 99.5005 16.0152 99.152 16.5341C98.8035 17.0492 98.2997 17.4527 97.6406 17.7443C96.9853 18.0322 96.1918 18.1761 95.2599 18.1761C94.3546 18.1761 93.5687 18.036 92.902 17.7557C92.2391 17.4754 91.7202 17.0663 91.3452 16.5284C90.974 15.9905 90.7732 15.3352 90.7429 14.5625H92.8168C92.8471 14.9678 92.9721 15.3049 93.1918 15.5739C93.4115 15.8428 93.6974 16.0436 94.0497 16.1761C94.4058 16.3087 94.8035 16.375 95.2429 16.375C95.7012 16.375 96.1027 16.3068 96.4474 16.1705C96.7959 16.0303 97.0687 15.8371 97.2656 15.5909C97.4626 15.3409 97.563 15.0492 97.5668 14.7159C97.563 14.4129 97.474 14.1629 97.2997 13.9659C97.1255 13.7652 96.8812 13.5985 96.5668 13.4659C96.2562 13.3295 95.8925 13.2083 95.4759 13.1023L94.152 12.7614C93.1937 12.5152 92.4361 12.142 91.8793 11.642C91.3262 11.1383 91.0497 10.4697 91.0497 9.63636C91.0497 8.95076 91.2353 8.35038 91.6065 7.83523C91.9815 7.32008 92.491 6.92045 93.1349 6.63636C93.7789 6.34848 94.508 6.20455 95.3224 6.20455C96.1482 6.20455 96.8717 6.34848 97.4929 6.63636C98.1179 6.92045 98.6084 7.31629 98.9645 7.82386C99.3205 8.32765 99.5043 8.9072 99.5156 9.5625H97.4872ZM101.554 18V6.36364H103.662V11.2898H109.054V6.36364H111.168V18H109.054V13.0568H103.662V18H101.554ZM123.858 12.1818C123.858 13.4356 123.623 14.5095 123.153 15.4034C122.688 16.2936 122.051 16.9754 121.244 17.4489C120.441 17.9223 119.53 18.1591 118.511 18.1591C117.492 18.1591 116.58 17.9223 115.773 17.4489C114.97 16.9716 114.333 16.2879 113.864 15.3977C113.398 14.5038 113.165 13.4318 113.165 12.1818C113.165 10.928 113.398 9.85606 113.864 8.96591C114.333 8.07197 114.97 7.38826 115.773 6.91477C116.58 6.44129 117.492 6.20455 118.511 6.20455C119.53 6.20455 120.441 6.44129 121.244 6.91477C122.051 7.38826 122.688 8.07197 123.153 8.96591C123.623 9.85606 123.858 10.928 123.858 12.1818ZM121.739 12.1818C121.739 11.2992 121.6 10.5549 121.324 9.94886C121.051 9.33902 120.672 8.87879 120.188 8.56818C119.703 8.25379 119.144 8.09659 118.511 8.09659C117.879 8.09659 117.32 8.25379 116.835 8.56818C116.35 8.87879 115.97 9.33902 115.693 9.94886C115.42 10.5549 115.284 11.2992 115.284 12.1818C115.284 13.0644 115.42 13.8106 115.693 14.4205C115.97 15.0265 116.35 15.4867 116.835 15.8011C117.32 16.1117 117.879 16.267 118.511 16.267C119.144 16.267 119.703 16.1117 120.188 15.8011C120.672 15.4867 121.051 15.0265 121.324 14.4205C121.6 13.8106 121.739 13.0644 121.739 12.1818ZM125.851 18V6.36364H130.214C131.108 6.36364 131.858 6.5303 132.464 6.86364C133.074 7.19697 133.535 7.6553 133.845 8.23864C134.16 8.81818 134.317 9.47727 134.317 10.2159C134.317 10.9621 134.16 11.625 133.845 12.2045C133.531 12.7841 133.067 13.2405 132.453 13.5739C131.839 13.9034 131.084 14.0682 130.186 14.0682H127.294V12.3352H129.902C130.425 12.3352 130.853 12.2443 131.186 12.0625C131.519 11.8807 131.766 11.6307 131.925 11.3125C132.088 10.9943 132.169 10.6288 132.169 10.2159C132.169 9.80303 132.088 9.43939 131.925 9.125C131.766 8.81061 131.518 8.56629 131.18 8.39205C130.847 8.21402 130.417 8.125 129.891 8.125H127.959V18H125.851Z" fill="#201B21"/>
</svg>
